<?xml version="1.0" standalone="no"?>
<!DOCTYPE svg PUBLIC "-//W3C//DTD SVG 20010904//EN"
 "http://www.w3.org/TR/2001/REC-SVG-20010904/DTD/svg10.dtd">
<svg version="1.0" xmlns="http://www.w3.org/2000/svg"
 width="1550.000000pt" height="1550.000000pt" viewBox="0 0 1550.000000 1550.000000"
 preserveAspectRatio="xMidYMid meet">
<metadata>
Created by potrace 1.11, written by Peter Selinger 2001-2013
</metadata>
<g transform="translate(0.000000,1550.000000) scale(0.100000,-0.100000)"
fill="#000000" stroke="none">
<path d="M4609 15056 c-153 -44 -276 -174 -308 -326 -9 -41 -11 -364 -9 -1271
l3 -1215 37 -75 c46 -93 122 -168 215 -212 l68 -32 1680 -6 c1827 -6 1748 -4
2094 -64 670 -117 1308 -394 1848 -803 345 -262 678 -604 931 -959 233 -326
441 -738 572 -1133 241 -729 279 -1520 109 -2273 -223 -989 -793 -1867 -1616
-2490 -536 -406 -1194 -690 -1853 -801 -365 -62 -345 -61 -1865 -61 l-1390 0
-5 3065 -5 3065 -34 67 c-41 82 -128 169 -206 204 -217 100 -473 9 -578 -205
l-32 -66 0 -3341 0 -3340 38 -76 c44 -89 116 -161 205 -205 l57 -28 1750 0
c1920 0 1817 -3 2195 61 915 153 1749 539 2475 1145 138 115 444 418 570 563
324 374 598 797 795 1226 262 569 412 1152 461 1781 15 205 7 733 -15 929
-153 1345 -806 2555 -1846 3419 -315 262 -640 472 -1025 661 -583 287 -1109
434 -1825 511 -71 8 -570 13 -1522 16 l-1418 4 -2 972 -3 972 -23 55 c-47 114
-141 209 -249 251 -71 27 -206 35 -274 15z"/>
<path d="M2987 11109 c-112 -27 -226 -123 -280 -236 l-32 -68 -3 -5005 c-2
-4564 -1 -5009 14 -5060 22 -76 55 -129 119 -189 142 -135 361 -157 522 -52
99 64 153 137 187 250 15 50 16 465 16 4783 l0 4729 2153 -4 c2364 -3 2188 1
2475 -63 971 -216 1739 -970 1987 -1949 52 -206 69 -359 69 -620 -1 -257 -10
-352 -60 -573 -122 -551 -444 -1076 -884 -1444 -307 -257 -731 -466 -1120
-552 -263 -58 -275 -58 -1216 -65 l-870 -6 -75 -37 c-93 -46 -158 -112 -202
-206 -30 -63 -32 -73 -32 -182 0 -111 1 -118 34 -185 38 -76 103 -148 171
-188 99 -57 92 -57 970 -57 928 0 1057 7 1380 76 1261 268 2283 1221 2639
2462 86 301 121 542 128 887 7 344 -19 594 -92 895 -319 1311 -1398 2348
-2711 2604 -334 65 -111 60 -2804 62 -1413 1 -2461 -2 -2483 -7z"/>
</g>
</svg>
