<?xml version="1.0" encoding="utf-8"?>
<!-- Generator: Adobe Illustrator 20.1.0, SVG Export Plug-In . SVG Version: 6.00 Build 0)  -->
<svg version="1.1" id="Layer_1" xmlns="http://www.w3.org/2000/svg" xmlns:xlink="http://www.w3.org/1999/xlink" x="0px" y="0px"
	 viewBox="0 0 292 88" style="enable-background:new 0 0 292 88;" xml:space="preserve">
<style type="text/css">
	.st0{clip-path:url(#SVGID_2_);}
	.st1{fill:#252525;}
</style>
<g>
	<defs>
		<rect id="SVGID_1_" y="0" width="292" height="88"/>
	</defs>
	<clipPath id="SVGID_2_">
		<use xlink:href="#SVGID_1_"  style="overflow:visible;"/>
	</clipPath>
	<g id="TaG-logo-green" class="st0">
		<g id="Group_11345" transform="translate(-33.569 -33.01)">
			<g id="Group_10269" transform="translate(33.569 33.01)">
				<g id="Group_10204" transform="translate(108.375 28.872)">
					<path id="Path_81" class="st1" d="M144.5,30c-8.4,0-15.2-6.1-15.2-15s6.9-15,15.2-15c3.6-0.1,7.1,1.1,9.9,3.5l-4,4.5
						c-1.6-1.1-3.5-1.7-5.4-1.7c-5.1,0-8.6,3.7-8.6,8.7s3.2,8.7,8.3,8.7c3.4,0,5.9-1.2,6.7-4.7h-6.6v-5.5h12.7
						C158.9,23.8,152.4,30,144.5,30z"/>
					<path id="Path_82" class="st1" d="M20.9,6.4h-7.1v23H7.1v-23H0V0.3h20.9V6.4z"/>
					<path id="Path_83" class="st1" d="M38.7,7.5v6.3c-0.5-0.1-1-0.1-1.5-0.1c-3.9-0.1-7.3,2.9-7.5,6.9v8.8h-6.6V7.8h6.6V13
						c0.8-3.3,3.9-5.7,7.3-5.6C37.6,7.4,38.2,7.4,38.7,7.5z"/>
					<path id="Path_84" class="st1" d="M41.7,20.2V7.8h6.6v12c0,3.3,1.9,4.4,3.9,4.4c2.1-0.1,3.9-1.7,4.2-3.7V7.8H63v21.7h-6.6v-3.9
						c-1.2,2.6-3.8,4.3-6.8,4.3C45.8,29.9,41.7,27.1,41.7,20.2z"/>
					<path id="Path_85" class="st1" d="M75,12.4c-0.9,0-1.8,0.5-1.8,1.3c0,0.8,0.5,1.3,1.5,1.6l2.7,1c3.1,1.1,6.1,2.4,6.1,6.5
						c0,4.5-4,6.9-8.8,6.9c-4.7,0-7.8-2.3-8.8-6.2l5.2-1.6c0.5,1.5,2,2.6,3.6,2.6c1.5,0,2.4-0.9,2.4-1.6c0-0.5-0.4-1-1.4-1.5
						l-2.5-0.9c-4.3-1.6-6.4-3.8-6.4-6.8c0-4.1,3.7-6.5,7.9-6.5c3.7-0.2,7.1,2.2,8.2,5.8l-5.6,1.5C76.8,12.9,75.9,12.4,75,12.4z"/>
					<path id="Path_86" class="st1" d="M100.2,23.4v5.3c-1.4,0.7-3,1-4.5,0.9c-3.9,0-6.7-1.2-6.7-6.5v-10h-3V7.8h3V2.2h6.6v5.5h4.6
						v5.4h-4.6v8.7c0,1,0.2,2,2.1,2C98.5,23.9,99.4,23.7,100.2,23.4z"/>
					<path id="Path_87" class="st1" d="M172.1,6.9c-6.4,0-11.5,5.2-11.5,11.5c0,6.4,5.2,11.5,11.5,11.5c6.4,0,11.5-5.2,11.5-11.5
						c0,0,0,0,0,0C183.6,12,178.5,6.9,172.1,6.9z M172.1,24.3c-3.3,0-5.9-2.6-5.9-5.9c0-3.3,2.6-5.9,5.9-5.9c3.3,0,5.9,2.6,5.9,5.9
						c0,0,0,0,0,0C178,21.7,175.4,24.3,172.1,24.3z"/>
					<path id="Path_88" class="st1" d="M126.3,18.4c-0.3-6.6-5.8-11.7-12.4-11.4c-6.3,0.2-11.3,5.3-11.5,11.6c0,4.7,2.9,9,7.3,10.8
						h0.1c7.2,2.4,10-2.1,10-2.1h0.4v2.4h6.1L126.3,18.4z M114.3,12.9c3.2-0.1,5.9,2.5,6,5.8c0,0,0,0.1,0,0.1c0,1.5-0.6,3-1.7,4.1
						c-1.1,1.2-2.7,1.8-4.3,1.8c-3.2,0-5.8-2.7-5.8-6C108.6,15.5,111.1,12.9,114.3,12.9L114.3,12.9z"/>
					<path id="Path_13846" class="st1" d="M20.9,6.4h-7.1v23H7.1v-23H0V0.3h20.9V6.4z"/>
				</g>
				<path id="Path_13845" class="st1" d="M43.7,0C19.6,0,0,19.5-0.1,43.7s19.5,43.8,43.7,43.8l0,0h5.3V43h16.4v-9.8H21.9V43h16.4
					v33.5c-18.1-3-30.3-20.1-27.2-38.1S31.1,8.1,49.2,11.1s30.3,20.1,27.2,38.1c-1.4,8.4-6,16-12.9,21.1l6.3,8.5
					c19.4-14.4,23.4-41.8,9-61.2C70.6,6.5,57.6,0,43.7,0z"/>
			</g>
		</g>
	</g>
</g>
</svg>
