<?xml version="1.0" encoding="utf-8"?>
<!-- Generator: Adobe Illustrator 20.1.0, SVG Export Plug-In . SVG Version: 6.00 Build 0)  -->
<svg version="1.1" id="Layer_1" xmlns="http://www.w3.org/2000/svg" xmlns:xlink="http://www.w3.org/1999/xlink" x="0px" y="0px"
	 viewBox="0 0 360 83" style="enable-background:new 0 0 360 83;" xml:space="preserve">
<style type="text/css">
	.st0{fill:#191919;}
</style>
<g>
	<path class="st0" d="M137.5,39.6V25.4c0-1.8-1-2.7-2.6-2.7h-8.5c-1.5,0-2.4,0.8-2.6,2.2l-0.2,3.3c-3-4.1-9.1-7-15.6-7
		c-7.6,0-14.9,3.4-19.8,10.1C106,30.4,122.1,34,137.5,39.6z"/>
	<path class="st0" d="M177.2,57.7l-6.8-10.6l17.4-21.8c0.4-0.5,0.5-1,0.5-1.3c0-0.7-0.6-1.2-1.6-1.2h-10.8c-1.6,0-2.3,0.4-3.3,1.7
		l-16,21.8h-0.2V18V2.8c0-2.1-0.9-2.8-2.3-2.8c-0.4,0-0.6,0.1-1,0.1l-8.9,1.2c-1.8,0.2-2.6,1-2.6,2.9v37
		C153.8,46,165.4,51.9,177.2,57.7z"/>
	<path class="st0" d="M82.4,31.6l1.9-6.4c0.1-0.4,0.1-0.6,0.1-1c0-0.8-0.4-1.6-1.8-1.6h-9.4c-2.2,0-3.2,1-3.5,2.7l-2,8.7
		C72.8,32.8,77.7,32.1,82.4,31.6z"/>
	<path class="st0" d="M53.3,38.2l-3.8-13.4c-0.4-1.5-1.5-2.1-3.3-2.1h-6.8c-1.6,0-2.8,0.6-3.3,2.4l-7,23.8
		C37.5,44.4,45.5,40.8,53.3,38.2z"/>
	<path class="st0" d="M261.5,77.2V2.7c0-1.9-1.2-2.7-2.7-2.7c-0.2,0-0.6,0.1-0.9,0.1l-8.8,1.2c-1.6,0.2-2.4,0.8-2.4,2.9v73.3
		C251.5,77.7,256.4,77.6,261.5,77.2z"/>
	<path class="st0" d="M275.5,75.6c6.7-1.1,13.6-2.6,20.9-4.6c-8.1-1.1-13.7-7.2-14.5-15.6h35.7c3,0,4-0.6,4-3.5v-1.8
		c0-8.3-1.6-15.9-7.2-21.7c-4.3-4.5-10.4-7.3-17.8-7.3c-18.1,0-30.2,12.6-30.2,30.8C266.4,62,269.6,70.2,275.5,75.6z M295.7,32.4
		c7.4,0,11.1,5.8,11.3,12.1c0,0.2,0,1.1,0,1.3h-25C283,38.7,287.8,32.4,295.7,32.4z"/>
	<path class="st0" d="M22.2,52.7L15.8,25c-0.4-1.5-1.1-2.3-3.4-2.3h-10c-1.6,0-2.4,0.5-2.4,1.6c0,0.2,0,0.6,0.1,1L10.5,60
		C14.5,57.3,18.4,54.9,22.2,52.7z"/>
	<path class="st0" d="M340.8,53.2V32.8h13.6c1.5,0,2.4-0.8,2.4-2.3v-5.7c0-1.6-0.9-2.1-2.3-2.1h-13.8v-20c0-1.8-0.7-2.7-2.3-2.7
		c-0.2,0-0.4,0-0.6,0L329,1.1c-1.9,0.2-3,0.8-3,2.9v55.8c0,0.1,0,0.3,0,0.4C330.8,58.1,335.7,55.8,340.8,53.2z"/>
	<path class="st0" d="M240.1,77.1c0-0.4-0.1-0.8-0.2-1.5l-1.7-6.2c-0.2-1-0.9-1.5-1.7-1.5c-0.5,0-0.9,0.2-1.3,0.4
		c-4.5,1.7-9.9,2.9-15,2.9c-9.6,0-16.4-6.4-17.4-15.8h35.7c3,0,4-0.6,4-3.5v-1.8c0-8.3-1.6-15.9-7.2-21.7
		c-4.3-4.5-10.4-7.3-17.8-7.3c-18.1,0-30.2,12.6-30.2,30.8c0,4.1,0.5,7.9,1.6,11.4c6.7,3.2,13.4,6.2,20.4,8.8
		c9.8,2.5,20.1,4.3,30.9,5.1C240,77.2,240.1,77.1,240.1,77.1z M216.6,32.4c7.4,0,11.1,5.8,11.3,12.1c0,0.2,0,1.1,0,1.3h-25
		C203.9,38.7,208.6,32.4,216.6,32.4z"/>
	<path class="st0" d="M209.1,72.1c-6.6-1.7-13-3.6-19.2-5.7C194.3,76.8,204,83,217.7,83c5.6,0,12.7-1,18.4-3
		C226.7,78.2,217.8,75.4,209.1,72.1z"/>
	<path class="st0" d="M317.2,69.4c-0.1-0.3-0.2-0.6-0.4-0.8c-12.5,5.6-24.1,9.2-35,11.3c4.2,2,9.2,3.1,14.9,3.1
		c6.3,0,14.5-1.2,20.5-3.9c1.5-0.6,1.9-1.2,1.9-2.1c0-0.4-0.1-0.8-0.2-1.5L317.2,69.4z"/>
	<path class="st0" d="M358.7,71.1c-0.2-1-0.7-1.5-1.6-1.5c-0.4,0-0.7,0.1-1.2,0.2c-2.2,0.7-4.7,1.5-7.8,1.5c-2.9,0-4.6-1-5.7-2.5
		c-1.3-1.9-1.6-4.6-1.6-8.3V56c-5,3-9.9,5.7-14.7,8.2c0.1,6.2,0.8,10.2,3.9,13.7c3,3.5,8.4,5.1,14.6,5.1c4.9,0,9.9-1.2,13.6-2.8
		c1.2-0.5,1.8-1.1,1.8-2.3c0-0.2,0-0.4-0.1-0.7L358.7,71.1z"/>
	<path class="st0" d="M180.7,63.2c-7.5-2.7-14.9-5.6-22.2-8.4L173.3,79c1.2,1.9,2.7,2.5,4.9,2.5h10.5c1.2,0,2.3-0.4,2.3-1.5
		c0-0.7-0.4-1.6-0.9-2.3L180.7,63.2z"/>
	<path class="st0" d="M122.7,43v18v1.8c-1.8,3.8-6.9,8.3-12.9,8.3c-9,0-12.9-8.6-12.9-18.8c0-5.6,1.2-10,3.3-13.1
		c-5.2-0.5-10.5-0.7-16-0.6c-1.6,4.2-2.5,9.1-2.5,14.7c0,15.8,7.8,29.9,25,29.9c5.7,0,12.4-3,16.1-6.7v2.4c0,1.8,1,2.9,2.8,2.9h9.1
		c1.9,0,2.8-1,2.8-3v-6.9v-4.1V54.7v-7.4C132.6,45.7,127.7,44.3,122.7,43z"/>
	<path class="st0" d="M66.2,40.2l-5.6,23.4h-0.1l-6-20.9c-3.8,1-7.8,2.2-11.8,3.5l9.4,32.3c0.6,1.9,1.6,3,3.8,3h8.3
		c2.2,0,3.2-1.1,3.8-2.9l12.2-40C75.7,38.9,71,39.4,66.2,40.2z"/>
	<path class="st0" d="M141.7,48.7v30c0,1.8,1,2.9,2.8,2.9h9.1c1.9,0,2.8-1,2.8-3v-6.9V54C151.5,52.1,146.6,50.3,141.7,48.7z"/>
	<path class="st0" d="M28.1,52l-3.3,11.3h-0.1l-2-8.7c-3.9,1.9-7.8,3.9-11.9,6.2l5.3,17.8c0.5,1.7,1.8,2.9,3.8,2.9H28
		c2.2,0,3.3-0.8,3.9-2.8l9.2-32C36.8,48.3,32.5,50,28.1,52z"/>
</g>
</svg>
